<?xml version="1.0" encoding="iso-8859-1"?>
<!-- Generator: Adobe Illustrator 19.0.0, SVG Export Plug-In . SVG Version: 6.00 Build 0)  -->
<svg version="1.1" id="Capa_1" xmlns="http://www.w3.org/2000/svg" xmlns:xlink="http://www.w3.org/1999/xlink" x="0px" y="0px"
	 viewBox="0 0 480 480" style="enable-background:new 0 0 480 480;" xml:space="preserve">
<g>
	<g>
		<g>
			<path d="M473.832,168.18l-136-32c-1.21-0.284-2.47-0.284-3.68,0l-96,22.864l3.696,15.56L328,154.1v192l-152,20.704v-86.832h-16
				v86.24l-144-28.8v-183.2l78.072,19.52l3.888-15.52l-88-22c-4.284-1.082-8.634,1.513-9.716,5.796C0.082,142.65,0,143.31,0,143.972
				v200c-0.001,3.802,2.675,7.08,6.4,7.84l160,32c0.872,0.176,1.767,0.206,2.648,0.088l174.72-23.824l126.728,23.752
				c0.495,0.098,0.999,0.146,1.504,0.144c4.418,0,8-3.582,8-8v-200C480.002,172.258,477.448,169.031,473.832,168.18z M464,366.372
				l-118.528-22.256c-0.488-0.062-0.981-0.075-1.472-0.04V154.068l120,28.24V366.372z"/>
			<path d="M162.632,260.324c1.464,2.258,3.965,3.629,6.656,3.648h0.048c2.676,0.005,5.176-1.328,6.664-3.552l45.496-68.168
				c18.951-28.456,11.246-66.886-17.21-85.837c-28.456-18.951-66.886-11.246-85.837,17.21c-1.013,1.521-1.958,3.086-2.833,4.691
				c-11.042,19.882-10.117,44.253,2.4,63.24L162.632,260.324z M129.664,135.972c12.091-22.288,39.961-30.554,62.249-18.463
				c22.288,12.091,30.554,39.961,18.463,62.249c-0.674,1.243-1.406,2.454-2.192,3.63L169.44,241.42l-37.96-58.568
				C122.197,168.781,121.497,150.719,129.664,135.972z"/>
			<path d="M170,191.972c17.673,0,32-14.327,32-32s-14.327-32-32-32s-32,14.327-32,32S152.327,191.972,170,191.972z M170,143.972
				c8.837,0,16,7.163,16,16s-7.163,16-16,16s-16-7.163-16-16S161.163,143.972,170,143.972z"/>
		</g>
	</g>
</g>
<g>
</g>
<g>
</g>
<g>
</g>
<g>
</g>
<g>
</g>
<g>
</g>
<g>
</g>
<g>
</g>
<g>
</g>
<g>
</g>
<g>
</g>
<g>
</g>
<g>
</g>
<g>
</g>
<g>
</g>
</svg>
