<svg id="Capa_1" enable-background="new 0 0 510.115 510.115" height="512" viewBox="0 0 510.115 510.115" width="512" xmlns="http://www.w3.org/2000/svg"><g><path d="m435.369 74.745c-99.653-99.653-260.958-99.666-360.624 0-99.653 99.652-99.668 260.958 0 360.625 99.653 99.653 260.958 99.666 360.624 0 99.653-99.652 99.668-260.958 0-360.625zm-180.312 405.312c-124.065 0-225-100.935-225-225s100.935-225 225-225 225 100.935 225 225-100.934 225-225 225z"/><path d="m363.857 104.057h-72.53c-8.284 0-15 6.716-15 15v84.73h-42.54v-84.73c0-8.284-6.716-15-15-15h-72.53c-8.284 0-15 6.716-15 15v272c0 8.284 6.716 15 15 15h72.53c8.284 0 15-6.716 15-15v-84.73h42.54v84.73c0 8.284 6.716 15 15 15h72.53c8.284 0 15-6.716 15-15v-272c0-8.284-6.716-15-15-15zm-15 272h-42.53v-84.73c0-8.284-6.716-15-15-15h-72.54c-8.284 0-15 6.716-15 15v84.73h-42.53v-242h42.53v84.73c0 8.284 6.716 15 15 15h72.54c8.284 0 15-6.716 15-15v-84.73h42.53z"/></g></svg>